<svg width="70" height="40" viewBox="0 0 70 40" fill="none" xmlns="http://www.w3.org/2000/svg">
<path d="M5.18728 13.8614V0.000854492H0V19.0487H11.6295V13.8614H5.18728ZM63.8829 0.024632V6.93009H61.9856V0.024632H56.7987V12.1174H60.3407V19.1406H65.5276V12.1174H69.0697V0.024632H63.8829Z" fill="black"/>
<path d="M20.7242 0.000976562V13.8606H18.6659V0.000976562H13.479V19.0488H25.9113V0.000976562H20.7242ZM54.9478 0.004909H49.7609V6.93526H47.4909V0.004909H42.304V19.0527H47.4909V12.1224H49.7609V19.0527H54.9478V12.3371L52.3545 9.5289L54.9478 6.72051V0.004909Z" fill="black"/>
<path d="M54.9478 26.1175V20.9304H42.304V39.9778H54.9478V34.7909H47.4709V26.1175H54.9478ZM20.7242 20.7611V34.721H18.6659V20.7611H13.479V39.9081H25.9113V20.7611H20.7242ZM35.267 20.9525V28.0983L32.9483 25.7795V20.93H27.7612V39.9778H32.9483V33.1152L35.267 35.4342V40.0001H40.4539V20.9525H35.267ZM64.035 20.9525V27.8828H61.832V20.9525H56.7981V40.0001H61.832V33.0699H64.035V40.0001H69.0692V20.9525H64.035Z" fill="black"/>
<path d="M0.0288086 20.761V39.8085H5.21571V32.6851H11.6281V20.761H0.0288086ZM5.18594 30.388V23.0583L8.57048 26.7231L5.18594 30.388Z" fill="black"/>
<path d="M40.7488 5.18709V0H28.0562V19.0478H40.7488V13.8607H33.2432V5.18709H40.7488Z" fill="black"/>
</svg>
